# xmcd
#
# Track frame offsets: 
#        150
#        22224
#        38195
#        54858
#        73680
#        97799
#        119851
#        139051
#        159146
#        185301
#        198680
#        218275
#
# Disc length: 3018 seconds
#
# Revision: 0
# Processed by: cddbd v1.5.2PL0 Copyright (c) Steve Scherf et al.
# Submitted via: ExactAudioCopy v0.99pb4
#
DISCID=a30bc80c
DTITLE=Daddy Mack Blues Band - Bluestones
DYEAR=2006
DGENRE=Blues
TTITLE0=Shade Tree Mechanic
TTITLE1=Plain Man
TTITLE2=It's Gonna Be A Good Day
TTITLE3=Slim Jenkin's Joint
TTITLE4=Saving My Love
TTITLE5=Razor Blade
TTITLE6=Stop Giving My Love Away
TTITLE7=Royal Shade Of Blues
TTITLE8=A Real Good One
TTITLE9=Stone Blues
TTITLE10=That's Where It's At
TTITLE11=Feliz Navidad
EXTD=
EXTT0=
EXTT1=
EXTT2=
EXTT3=
EXTT4=
EXTT5=
EXTT6=
EXTT7=
EXTT8=
EXTT9=
EXTT10=
EXTT11=
PLAYORDER=
